<svg id="path1" xmlns="http://www.w3.org/2000/svg" viewBox="0 0 561.7 85"><style>.st0{fill:#69acdf}.st1{fill:#a1c854}.st2{fill:#599f46}.st3{fill:#75b94e}.st4{fill:#f08046}.st5{fill:#fff}</style><path class="st0" d="M90.2 36.1C90.2 16.2 74 0 54.1 0c-3.1 0-6.1.4-9 1.1 5.5 1.4 10.5 4.1 14.7 7.7 1.8.9 3.5 1.9 5.1 3.1C76.3 18 84 30 84 43.8c0 6.7-1.9 13-5.1 18.4 7-6.5 11.3-15.8 11.3-26.1z"/><path class="st1" d="M11.4 25.3C15.7 16.5 23.5 9.7 33 6.8c3.6-2.6 7.6-4.5 12-5.6C42.1.5 39.1.1 36 .1 16.2 0 0 16.2 0 36.1c0 4.7.9 9.3 2.6 13.4V49c0-9.1 3.3-17.4 8.8-23.7z"/><path class="st2" d="M43.8 5.2c5.7 0 11.1 1.3 15.9 3.7-4.2-3.6-9.1-6.3-14.7-7.7-4.4 1.1-8.4 3.1-12 5.6 3.5-1.1 7.1-1.6 10.8-1.6z"/><path class="st3" d="M26.8 73.1c-2.4-1.3-4.7-2.8-6.7-4.6-7.9-4-14.2-10.7-17.5-19C2.9 69.2 18.9 85 38.7 85c8.3 0 15.9-2.8 21.9-7.4-3.9 1.5-8.2 2.3-12.7 2.3-7.8 0-15.1-2.5-21.1-6.8z"/><path class="st2" d="M20.1 68.4C12.5 61.8 7.7 52.1 7.7 41.2c0-5.7 1.3-11.1 3.7-15.9C5.9 31.6 2.6 39.9 2.6 49v.5c3.3 8.3 9.6 15 17.5 18.9z"/><path class="st4" d="M64.9 12c9.1 6.6 15 17.2 15 29.3 0 9.1-3.3 17.3-8.9 23.7-1.8 2.1-3.9 4-6.2 5.6-5.9 4.3-13.2 6.8-21 6.8-6.1 0-11.9-1.5-17-4.2C32.7 77.5 40 80 47.9 80c4.5 0 8.7-.8 12.7-2.3 7.7-2.9 14.2-8.4 18.4-15.4 3.2-5.4 5.1-11.7 5.1-18.4C84 30 76.3 18 64.9 12z"/><path class="st5" d="M158.6 67.4c.3.3.5.7.5 1.1 0 .5-.2.9-.5 1.1-.3.3-.7.4-1.1.4h-29.7c-.4 0-.8-.2-1.1-.5s-.5-.7-.5-1.1v-52c0-.4.2-.8.5-1.1s.7-.5 1.1-.5h29.7c.4 0 .8.2 1.1.5s.5.7.5 1.1c0 .5-.2.9-.5 1.1-.3.3-.7.4-1.1.4h-28v22H154c.4 0 .8.2 1.1.5.3.3.5.7.5 1.1 0 .5-.2.9-.5 1.1-.3.3-.7.4-1.1.4h-24.4v23.7h28c.4.2.7.4 1 .7zm56.9-52c.3.3.4.6.4 1 0 .2-.1.5-.2.8l-21.6 51.9c-.3.7-.8 1-1.5 1-.3 0-.6-.1-.9-.3-.3-.2-.5-.4-.6-.7l-21.4-51.7c-.2-.3-.2-.6-.2-.9 0-.4.1-.8.4-1.1.3-.3.6-.4 1.1-.4.8 0 1.4.4 1.7 1.3l20 48.1L212.9 16c.4-.7.9-1 1.5-1 .5 0 .9.1 1.1.4zm56.3 41.8c-2.2 4.3-5.3 7.7-9.3 10-4 2.4-8.5 3.6-13.6 3.6s-9.6-1.2-13.6-3.6c-4-2.4-7.1-5.7-9.3-10-2.2-4.3-3.3-9.2-3.3-14.7s1.1-10.4 3.3-14.7c2.2-4.3 5.3-7.6 9.3-10 4-2.4 8.5-3.6 13.6-3.6s9.6 1.2 13.6 3.6c4 2.4 7.1 5.7 9.3 10 2.2 4.3 3.3 9.2 3.3 14.7s-1.1 10.4-3.3 14.7zm-2.9-27.8c-1.9-3.8-4.7-6.8-8.1-8.9-3.5-2.1-7.5-3.1-11.9-3.1-4.5 0-8.4 1.1-11.9 3.1-3.5 2.1-6.2 5.1-8.1 8.9-1.9 3.8-2.9 8.2-2.9 13.1s1 9.3 2.9 13.2c1.9 3.8 4.7 6.8 8.1 8.9 3.5 2.1 7.5 3.1 11.9 3.1 4.5 0 8.4-1 11.9-3.1s6.2-5.1 8.1-8.9c1.9-3.8 2.9-8.2 2.9-13.2 0-4.9-.9-9.3-2.9-13.1zm52.2 38c.3.3.5.7.5 1.1 0 .5-.2.9-.5 1.1-.3.3-.7.4-1.1.4h-28.9c-.5 0-.9-.2-1.1-.5s-.4-.7-.4-1.1v-52c0-.4.2-.8.5-1.1s.7-.5 1.2-.5.9.2 1.2.5c.3.3.5.7.5 1.1v50.4h27c.4.1.8.3 1.1.6zm48.2-52c.3.3.4.7.4 1.1v34c0 3.7-.9 7.1-2.8 10.2-1.8 3.1-4.3 5.6-7.4 7.4-3.1 1.8-6.5 2.8-10.1 2.8-3.7 0-7.1-.9-10.2-2.8-3.1-1.8-5.6-4.3-7.4-7.4-1.8-3.1-2.8-6.5-2.8-10.2v-34c0-.5.2-.9.5-1.1.3-.3.7-.4 1.2-.4s.9.2 1.2.5.5.7.5 1.1v34c0 3.1.8 6 2.3 8.6 1.5 2.6 3.6 4.7 6.2 6.3 2.6 1.5 5.4 2.3 8.5 2.3s5.9-.8 8.5-2.3c2.6-1.5 4.7-3.6 6.2-6.3 1.5-2.6 2.3-5.5 2.3-8.6v-34c0-.4.1-.8.4-1.1.3-.3.7-.5 1.1-.5.7 0 1.1.1 1.4.4zm53.6 0c.3.3.5.6.5 1.1 0 .5-.1.8-.4 1.1-.3.3-.7.4-1.1.4h-17.6v50.6c0 .4-.2.8-.5 1.1-.3.3-.7.5-1.1.5-.5 0-.9-.2-1.1-.5-.3-.3-.4-.7-.4-1.1V18h-17.6c-.4 0-.8-.1-1.1-.4-.3-.3-.5-.6-.5-1.1 0-.4.2-.8.5-1.1.3-.3.7-.4 1.1-.4h38.3c.3 0 .7.1 1 .4zm15.5 54.2c-.3.3-.7.5-1.1.5-.5 0-.9-.2-1.2-.5s-.4-.7-.4-1.2V16.6c0-.5.2-.9.5-1.2s.7-.5 1.2-.5.9.2 1.2.5c.3.3.5.7.5 1.2v51.8c-.2.5-.4.9-.7 1.2zm64.2-12.4c-2.2 4.3-5.3 7.7-9.3 10-4 2.4-8.5 3.6-13.6 3.6s-9.6-1.2-13.6-3.6c-4-2.4-7.1-5.7-9.3-10-2.2-4.3-3.3-9.2-3.3-14.7s1.1-10.4 3.3-14.7c2.2-4.3 5.3-7.6 9.3-10 4-2.4 8.5-3.6 13.6-3.6s9.6 1.2 13.6 3.6c4 2.4 7.1 5.7 9.3 10 2.2 4.3 3.3 9.2 3.3 14.7s-1.1 10.4-3.3 14.7zm-2.9-27.8c-1.9-3.8-4.7-6.8-8.1-8.9-3.5-2.1-7.5-3.1-11.9-3.1s-8.4 1.1-11.9 3.1c-3.5 2.1-6.2 5.1-8.1 8.9-1.9 3.8-2.9 8.2-2.9 13.1s1 9.3 2.9 13.2c1.9 3.8 4.7 6.8 8.1 8.9 3.5 2.1 7.5 3.1 11.9 3.1s8.4-1 11.9-3.1 6.2-5.1 8.1-8.9c1.9-3.8 2.9-8.2 2.9-13.2 0-4.9-1-9.3-2.9-13.1zm61.6-14c.3.3.4.6.4 1.1v51.9c0 .6-.2 1-.5 1.3-.3.3-.7.4-1.2.4s-.9-.2-1.3-.6L523.3 21v47.7c0 .4-.1.7-.4.9-.3.3-.6.4-1.1.4-.5 0-.8-.1-1.1-.4-.3-.3-.4-.6-.4-.9V16.5c0-.5.1-.9.4-1.2.3-.3.6-.4 1-.4.5 0 .9.2 1.2.6l35.7 48.7V16.5c0-.4.1-.8.4-1.1.3-.3.6-.4 1.1-.4.5 0 .9.1 1.2.4z"/></svg>